<?xml version="1.0" standalone="no"?>
<!DOCTYPE svg PUBLIC "-//W3C//DTD SVG 20010904//EN"
 "http://www.w3.org/TR/2001/REC-SVG-20010904/DTD/svg10.dtd">
<svg version="1.0" xmlns="http://www.w3.org/2000/svg"
 width="700.000000pt" height="700.000000pt" viewBox="0 0 700.000000 700.000000"
 preserveAspectRatio="xMidYMid meet">
<metadata>
Created by potrace 1.11, written by Peter Selinger 2001-2013
</metadata>
<g transform="translate(0.000000,700.000000) scale(0.100000,-0.100000)"
fill="#000000" stroke="none">
<path d="M737 6973 c-4 -3 -7 -12 -7 -20 0 -17 26 -17 33 1 8 21 -11 35 -26
19z"/>
<path d="M4637 6963 c-14 -13 -6 -24 15 -21 27 4 36 28 11 28 -11 0 -23 -3
-26 -7z"/>
<path d="M4907 6954 c-8 -8 1 -24 14 -24 5 0 9 7 9 15 0 15 -12 20 -23 9z"/>
<path d="M4553 6943 c-13 -5 -19 -43 -7 -43 10 0 34 28 34 39 0 12 -7 13 -27
4z"/>
<path d="M4820 6929 c0 -5 5 -7 10 -4 6 3 10 8 10 11 0 2 -4 4 -10 4 -5 0 -10
-5 -10 -11z"/>
<path d="M5840 6930 c0 -5 5 -10 10 -10 6 0 10 5 10 10 0 6 -4 10 -10 10 -5 0
-10 -4 -10 -10z"/>
<path d="M2138 6923 c7 -3 16 -2 19 1 4 3 -2 6 -13 5 -11 0 -14 -3 -6 -6z"/>
<path d="M5070 6886 c0 -22 29 -41 42 -28 8 8 8 15 -2 27 -16 19 -40 20 -40 1z"/>
<path d="M1035 6840 c-3 -5 1 -10 9 -10 9 0 16 5 16 10 0 6 -4 10 -9 10 -6 0
-13 -4 -16 -10z"/>
<path d="M2800 6821 c0 -6 4 -13 10 -16 6 -3 7 1 4 9 -7 18 -14 21 -14 7z"/>
<path d="M1426 6813 c-4 -4 -28 -10 -54 -13 -44 -5 -47 -7 -50 -37 -4 -36 -21
-44 -29 -14 -4 17 -9 18 -31 10 -15 -6 -91 -11 -169 -12 -87 -1 -143 -6 -143
-12 0 -5 -5 -3 -10 5 -7 11 -12 12 -18 3 -6 -10 -157 -11 -297 -2 -16 2 -47
-1 -67 -5 -20 -4 -57 -4 -81 2 -52 11 -78 1 -72 -28 2 -13 -2 -20 -11 -20 -8
0 -14 9 -14 20 0 11 -4 20 -10 20 -5 0 -10 7 -10 15 0 12 -17 15 -89 15 -74 0
-92 -3 -115 -21 -22 -18 -24 -22 -12 -35 8 -8 26 -14 39 -14 14 0 28 -6 30
-12 4 -10 6 -10 6 0 1 6 10 12 22 12 15 0 19 -5 15 -15 -4 -10 1 -15 14 -15
11 0 20 -4 20 -10 0 -5 -4 -10 -9 -10 -9 0 -27 -76 -23 -92 1 -5 -3 -8 -9 -8
-6 0 -9 -6 -6 -12 7 -21 -40 -98 -60 -98 -5 0 -19 -9 -31 -20 -17 -16 -20 -25
-12 -40 6 -12 7 -36 1 -67 -5 -26 -6 -67 -1 -91 4 -23 5 -44 1 -46 -9 -6 -5
-177 4 -200 4 -10 4 -21 -2 -25 -13 -8 -17 -201 -4 -201 6 0 24 14 41 30 17
17 32 30 35 30 2 0 5 -43 7 -95 2 -71 0 -95 -9 -95 -7 0 -13 -7 -13 -15 0 -8
4 -15 10 -15 22 0 1 -47 -31 -67 -19 -13 -39 -27 -46 -33 -7 -5 -17 -10 -23
-10 -5 0 -10 -4 -10 -10 0 -13 33 -13 46 -1 5 5 25 12 45 16 l36 7 -4 -73 c-4
-75 -9 -91 -21 -73 -7 10 -75 54 -85 54 -2 0 -5 -58 -6 -130 -1 -71 -4 -136
-7 -145 -4 -10 0 -15 10 -15 14 0 16 -20 17 -157 1 -390 -2 -518 -14 -525 -9
-6 -9 -8 1 -8 8 0 12 -17 12 -50 0 -43 3 -50 20 -50 13 0 18 -5 14 -15 -4 -8
-12 -15 -20 -15 -12 0 -14 -42 -14 -242 0 -134 4 -249 9 -257 8 -12 14 -12 40
-1 18 7 34 11 37 8 2 -3 6 -90 7 -194 1 -104 6 -194 9 -200 4 -6 5 -28 2 -50
-9 -71 -11 -164 -3 -164 4 0 11 -20 15 -45 6 -46 17 -57 28 -29 4 9 11 12 18
7 14 -8 28 -11 65 -15 13 -1 23 -5 23 -8 0 -4 763 -9 1560 -10 65 -1 706 10
768 12 23 1 42 6 42 12 0 6 5 4 10 -5 7 -13 21 -15 62 -12 29 2 54 6 57 9 2 2
12 -3 21 -11 14 -13 22 -14 43 -4 29 13 40 63 24 119 -5 20 -7 85 -3 150 8
147 10 3246 2 3283 -3 15 -8 38 -11 51 -9 43 -40 46 -483 46 -270 0 -421 4
-434 11 -12 6 -24 7 -31 1 -17 -13 -273 -7 -270 7 2 6 -11 11 -27 11 -16 0
-30 4 -30 9 0 5 -15 12 -32 16 -89 20 -108 22 -108 12 0 -5 -7 -4 -15 3 -8 7
-15 8 -15 3 0 -12 -48 -5 -56 8 -6 11 -18 12 -28 2z"/>
<path d="M4095 6788 c-12 -7 -227 -14 -250 -8 -28 7 -116 -1 -110 -10 3 -5 1
-11 -4 -11 -21 -3 -26 -4 -59 -18 -24 -10 -39 -11 -56 -3 -15 7 -37 7 -62 1
-22 -4 -51 -9 -67 -9 -42 0 -113 -37 -114 -60 -1 -12 3 -17 12 -14 15 6 32
-15 19 -25 -11 -7 -31 -38 -43 -66 -14 -33 -71 -86 -83 -79 -6 4 -8 3 -4 -4 3
-6 2 -13 -3 -17 -6 -3 -7 -15 -2 -27 9 -26 -44 -125 -101 -188 -10 -11 -15
-26 -12 -35 4 -8 1 -15 -5 -15 -7 0 -5 -12 6 -32 22 -42 28 -114 9 -121 -8 -3
-12 -18 -10 -39 4 -48 5 -236 1 -285 -5 -53 3 -65 42 -67 26 -1 31 -5 31 -26
0 -14 5 -31 11 -37 7 -7 8 -17 1 -29 -13 -28 -16 -138 -3 -129 6 3 11 2 11 -4
0 -5 -6 -14 -14 -18 -19 -11 -9 -74 10 -66 8 3 14 -1 15 -8 1 -27 8 -94 11
-114 2 -11 -1 -20 -7 -20 -5 -1 -27 -4 -47 -8 l-36 -8 -1 -154 c-2 -166 -5
-187 -27 -178 -8 3 -14 0 -14 -6 0 -6 5 -11 10 -11 6 0 10 -13 10 -30 0 -16
-4 -30 -9 -30 -6 0 -9 -9 -8 -20 1 -11 4 -20 7 -20 3 0 6 -25 7 -55 2 -31 -2
-55 -7 -55 -18 0 -1 -209 22 -274 18 -50 23 -56 33 -42 22 29 44 20 41 -18 -2
-18 -6 -38 -10 -45 -4 -7 -3 -18 4 -26 8 -10 8 -15 -1 -20 -8 -6 -7 -10 2 -16
8 -5 9 -9 4 -9 -13 0 -14 -196 -1 -222 4 -9 5 -22 1 -28 -3 -5 -3 -10 2 -10 4
0 8 -45 7 -100 0 -55 4 -100 8 -100 5 0 6 -4 3 -10 -3 -5 -1 -10 6 -10 6 0 9
-8 6 -20 -3 -13 0 -20 8 -20 8 0 22 -10 32 -23 10 -13 23 -22 29 -20 15 5 37
-48 25 -60 -5 -5 -7 -16 -4 -23 4 -10 0 -12 -11 -8 -9 3 -16 1 -16 -4 0 -16
220 -20 236 -4 9 8 15 9 19 2 4 -6 14 -10 23 -9 10 1 51 1 92 0 l76 -1 29 -50
c30 -51 94 -105 116 -98 7 2 -3 16 -25 33 -21 16 -50 47 -66 70 l-29 42 137 2
c75 1 147 3 160 4 24 2 41 -28 56 -104 6 -33 22 -59 36 -59 7 0 -10 74 -29
123 -6 16 -11 31 -11 34 0 6 177 -3 235 -12 36 -6 42 -11 52 -43 22 -70 33
-93 42 -88 5 3 2 32 -6 66 -9 34 -13 63 -10 67 11 10 627 13 627 3 0 -6 9 -10
20 -10 11 0 20 4 20 9 0 5 59 10 133 10 91 0 145 5 174 15 42 15 135 12 158
-4 6 -4 59 -8 120 -9 60 -1 112 -5 115 -9 3 -5 25 -9 49 -11 24 -1 51 -6 60
-10 9 -5 39 -7 66 -4 28 2 116 6 198 9 130 5 147 4 147 -10 0 -13 13 -16 74
-16 101 0 200 11 185 21 -16 9 29 29 67 29 13 0 24 4 24 9 0 5 9 13 20 16 22
7 28 50 8 58 -10 4 -10 8 2 16 8 5 18 7 22 5 12 -8 46 28 53 58 4 15 2 43 -5
63 -10 30 -16 36 -34 31 -18 -4 -21 0 -24 34 -2 31 1 40 13 40 9 0 13 5 10 10
-4 6 -11 8 -16 5 -5 -4 -9 -2 -9 4 0 5 6 11 12 13 9 3 13 38 14 122 0 65 5
121 10 124 5 4 10 15 12 26 2 13 -1 16 -10 10 -10 -6 -10 -4 1 9 9 12 10 17 2
17 -9 0 -9 5 -1 20 8 14 8 20 0 20 -7 0 -8 15 -4 43 9 60 12 92 18 182 13 194
16 277 9 288 -4 6 -8 37 -8 67 -1 30 -5 75 -9 100 -12 74 -14 125 -5 130 5 3
9 63 10 133 1 70 6 130 11 133 5 3 7 12 4 20 -6 16 -20 251 -18 297 1 15 -3
27 -9 27 -6 0 -9 14 -7 30 1 17 -2 34 -8 38 -6 4 -11 14 -11 22 0 8 -4 24 -9
34 -6 15 -4 18 9 13 12 -4 15 -1 12 15 -3 12 -9 24 -13 27 -13 9 -6 159 8 176
9 11 10 15 1 15 -7 0 -9 5 -6 10 3 6 1 10 -4 10 -6 0 -11 7 -11 16 0 8 4 13 9
9 6 -3 9 3 8 14 0 11 -4 18 -8 15 -11 -6 -5 35 9 69 15 36 15 37 -4 37 -8 0
-13 4 -10 8 3 5 1 34 -3 65 -7 49 -5 57 8 57 9 0 12 3 6 8 -5 4 -11 17 -13 30
-3 18 2 22 22 22 16 0 26 6 26 15 0 10 11 15 33 16 l32 1 -33 9 c-18 5 -30 14
-27 19 8 13 42 13 50 0 10 -16 25 -12 19 5 -4 8 -2 15 3 15 11 0 33 58 33 87
0 27 -37 73 -58 73 -27 1 -53 25 -41 37 10 10 -1 22 -60 63 -25 17 -28 40 -5
40 8 0 13 4 10 9 -7 11 -396 11 -396 0 0 -4 -8 -5 -17 -2 -12 5 -15 2 -10 -10
8 -21 -12 -34 -24 -16 -8 12 -10 12 -18 0 -8 -12 -12 -12 -24 -2 -12 9 -16 9
-20 -1 -4 -11 -6 -10 -6 0 -1 7 -6 10 -12 7 -14 -9 -179 -13 -173 -4 2 4 -5 9
-16 12 -11 3 -20 2 -20 -1 0 -9 -264 -10 -270 -1 -3 4 -82 9 -175 12 -248 7
-424 16 -475 23 -42 6 -383 11 -510 7 -30 -1 -151 -1 -268 0 -117 1 -219 -1
-227 -5z"/>
<path d="M2892 6764 c-7 -8 -8 -14 -3 -14 10 0 25 19 20 25 -2 1 -10 -3 -17
-11z"/>
<path d="M134 6598 c1 -40 6 -72 10 -70 12 3 10 136 -2 140 -7 2 -9 -23 -8
-70z"/>
<path d="M6945 6510 c3 -5 8 -10 11 -10 2 0 4 5 4 10 0 6 -5 10 -11 10 -5 0
-7 -4 -4 -10z"/>
<path d="M3140 6414 c0 -11 9 -14 37 -12 52 4 56 28 4 28 -30 0 -41 -4 -41
-16z"/>
<path d="M100 6380 c-13 -8 -12 -10 3 -10 9 0 17 5 17 10 0 12 -1 12 -20 0z"/>
<path d="M65 5781 c-6 -11 9 -23 19 -14 9 9 7 23 -3 23 -6 0 -12 -4 -16 -9z"/>
<path d="M105 5700 c3 -5 8 -10 11 -10 2 0 4 5 4 10 0 6 -5 10 -11 10 -5 0 -7
-4 -4 -10z"/>
<path d="M3170 5220 c0 -5 5 -10 11 -10 5 0 7 5 4 10 -3 6 -8 10 -11 10 -2 0
-4 -4 -4 -10z"/>
<path d="M30 5106 c0 -9 5 -16 10 -16 6 0 10 4 10 9 0 6 -4 13 -10 16 -5 3
-10 -1 -10 -9z"/>
<path d="M3140 4880 c0 -5 5 -10 10 -10 6 0 10 5 10 10 0 6 -4 10 -10 10 -5 0
-10 -4 -10 -10z"/>
<path d="M23 4872 c-8 -5 -9 -13 -3 -22 11 -17 23 -8 18 14 -2 9 -8 12 -15 8z"/>
<path d="M6820 4830 c0 -5 5 -10 10 -10 6 0 10 5 10 10 0 6 -4 10 -10 10 -5 0
-10 -4 -10 -10z"/>
<path d="M6880 4755 c-7 -9 -10 -18 -7 -21 3 -3 10 4 17 15 13 25 8 27 -10 6z"/>
<path d="M55 4659 c-4 -6 -5 -12 -2 -15 2 -3 7 2 10 11 7 17 1 20 -8 4z"/>
<path d="M6940 3735 c0 -8 5 -15 10 -15 6 0 10 7 10 15 0 8 -4 15 -10 15 -5 0
-10 -7 -10 -15z"/>
<path d="M6940 3666 c0 -9 5 -16 10 -16 6 0 10 4 10 9 0 6 -4 13 -10 16 -5 3
-10 -1 -10 -9z"/>
<path d="M42 3446 c1 -15 6 -26 10 -26 12 0 10 38 -2 45 -6 4 -9 -5 -8 -19z"/>
<path d="M178 3463 c7 -3 16 -2 19 1 4 3 -2 6 -13 5 -11 0 -14 -3 -6 -6z"/>
<path d="M5265 3440 c-4 -6 6 -10 22 -10 22 0 25 2 13 10 -19 12 -27 12 -35 0z"/>
<path d="M4095 3390 c-3 -5 -1 -10 4 -10 6 0 11 5 11 10 0 6 -2 10 -4 10 -3 0
-8 -4 -11 -10z"/>
<path d="M6900 3166 c0 -8 5 -18 10 -21 6 -3 10 1 10 9 0 8 -4 18 -10 21 -5 3
-10 -1 -10 -9z"/>
<path d="M6890 3052 c0 -10 -6 -24 -12 -31 -14 -14 -8 -13 35 8 34 18 35 41 2
41 -17 0 -25 -5 -25 -18z"/>
<path d="M682 3029 c2 -7 10 -15 17 -17 8 -3 12 1 9 9 -2 7 -10 15 -17 17 -8
3 -12 -1 -9 -9z"/>
<path d="M2273 3013 c-18 -2 -33 -8 -33 -13 0 -4 -8 -6 -19 -3 -10 2 -57 -2
-103 -11 -47 -9 -101 -16 -122 -16 -36 0 -66 -18 -66 -39 0 -10 -10 -12 -67
-14 -51 -1 -239 17 -249 24 -5 4 -35 6 -65 3 -272 -23 -356 -24 -369 -4 -6 10
-31 13 -87 13 -43 -1 -84 4 -91 9 -9 8 -16 8 -24 0 -15 -15 -198 -16 -198 -2
0 18 -49 11 -70 -10 -24 -24 -50 -26 -50 -5 0 8 -12 18 -26 21 -28 7 -74 -9
-74 -26 0 -5 -13 -10 -30 -10 -17 0 -30 -5 -30 -12 0 -10 -2 -10 -8 0 -9 14
-162 13 -162 0 0 -5 -13 -8 -29 -8 -17 0 -42 -10 -58 -24 -28 -24 -28 -26 -27
-130 1 -58 -3 -106 -7 -106 -5 0 -8 -282 -7 -626 2 -536 0 -627 -13 -635 -9
-6 -11 -11 -3 -16 6 -5 11 -29 13 -55 1 -38 -1 -48 -14 -48 -13 0 -14 -4 -5
-20 6 -11 13 -45 15 -75 4 -45 2 -55 -11 -55 -14 0 -14 -2 0 -16 13 -12 15
-32 11 -100 -3 -47 -7 -99 -10 -115 -3 -16 -1 -29 4 -29 14 0 21 -67 10 -102
-7 -26 -6 -35 6 -44 17 -13 20 -44 5 -44 -6 0 -10 -73 -10 -199 0 -182 2 -200
18 -205 66 -18 210 -29 427 -30 99 -1 186 -5 193 -9 7 -5 12 -4 12 3 0 8 11 9
32 4 35 -7 175 -7 353 1 61 3 198 4 305 4 253 -2 452 1 462 7 4 3 204 4 445 4
l438 0 42 46 c24 25 43 50 43 55 0 5 5 9 11 9 22 0 34 27 36 79 1 31 7 57 14
62 9 5 10 11 2 21 -18 23 -22 83 -8 142 10 43 11 58 2 62 -21 8 -16 50 7 60
29 12 32 43 7 60 -23 17 -28 50 -9 56 10 4 13 42 14 144 1 291 5 364 20 364
18 0 12 89 -7 100 -9 6 -7 25 8 82 15 53 18 86 13 114 l-8 39 -1 -47 c0 -27
-5 -48 -10 -48 -11 0 -9 300 2 318 8 11 21 147 19 182 -1 8 -4 83 -7 165 -9
277 -13 312 -43 337 -25 21 -27 30 -29 103 -1 47 3 82 9 86 8 5 -4 34 -29 69
-2 2 -19 3 -37 2 -18 -1 -49 5 -70 13 -20 9 -40 14 -45 11 -4 -3 -42 -7 -84
-10 -59 -4 -88 -2 -120 11 -23 9 -44 19 -47 22 -10 12 -68 28 -78 22 -5 -3
-12 -16 -16 -27 -12 -40 -71 -37 -73 4 -1 37 -2 38 -28 50 -26 12 -48 13 -112
5z"/>
<path d="M1395 2990 c3 -5 8 -10 11 -10 2 0 4 5 4 10 0 6 -5 10 -11 10 -5 0
-7 -4 -4 -10z"/>
<path d="M1430 2985 c0 -8 29 -12 39 -5 9 5 4 8 -13 8 -14 0 -26 -2 -26 -3z"/>
<path d="M1670 2966 c0 -9 5 -16 10 -16 6 0 10 4 10 9 0 6 -4 13 -10 16 -5 3
-10 -1 -10 -9z"/>
<path d="M3360 2975 c-8 -2 -32 -6 -53 -10 -21 -3 -35 -10 -32 -15 3 -5 -2
-13 -10 -18 -14 -7 -16 -51 -17 -362 l-1 -354 -24 28 c-13 16 -27 26 -30 22
-3 -3 7 -19 24 -34 23 -23 29 -36 27 -63 -11 -157 -13 -373 -3 -385 7 -8 8
-24 4 -41 -11 -40 -15 -453 -4 -453 5 0 7 -10 5 -22 -3 -13 -5 -23 -6 -23 -1
0 -3 -46 -5 -103 -1 -56 0 -102 4 -102 9 0 7 -44 -2 -47 -16 -6 -27 -2 -27 10
0 7 -14 14 -32 15 -18 1 -41 5 -50 8 -18 5 -26 -16 -20 -54 3 -17 10 -22 29
-20 18 2 28 -5 41 -27 9 -16 20 -31 25 -33 4 -2 7 -17 7 -33 0 -25 -5 -30 -30
-36 -29 -5 -52 -23 -31 -23 14 0 14 -37 1 -45 -5 -3 -10 -17 -10 -31 0 -14 -5
-34 -10 -44 -12 -23 -21 -97 -13 -116 3 -8 16 -14 28 -14 13 0 27 -5 30 -10
10 -16 -15 -40 -41 -40 -22 0 -24 -4 -24 -44 0 -37 5 -48 34 -74 19 -16 55
-40 80 -53 25 -12 46 -26 46 -31 0 -17 50 -59 62 -52 14 9 76 10 85 1 3 -4 -1
-7 -11 -7 -12 0 -16 -6 -14 -22 2 -13 9 -22 16 -20 6 1 12 -3 12 -9 0 -6 9 -4
21 4 11 8 30 12 42 9 12 -3 19 -2 15 3 -11 11 21 38 49 41 22 3 24 0 19 -22
-5 -17 -2 -24 8 -24 8 0 17 -6 20 -12 3 -7 5 -1 3 14 -5 36 6 52 32 43 15 -4
21 -15 21 -36 0 -27 2 -29 22 -18 18 10 20 9 15 -5 -6 -14 -3 -15 13 -6 11 6
20 7 20 3 0 -4 20 -7 45 -6 33 1 51 7 65 23 l19 21 11 -21 c6 -11 15 -18 21
-14 5 3 17 0 25 -7 12 -10 13 -9 8 4 -4 12 0 15 20 13 14 -2 26 0 26 3 0 4 9
7 20 8 11 1 18 -3 14 -8 -3 -6 11 -7 35 -4 31 4 41 1 41 -10 0 -7 -4 -17 -10
-20 -15 -9 -12 -25 5 -25 9 0 18 7 21 15 4 8 13 15 22 15 8 0 12 3 9 7 -13 12
14 33 32 24 29 -16 150 -24 165 -12 9 7 17 8 20 2 8 -13 -4 -41 -17 -41 -7 0
-7 -4 1 -12 10 -10 131 -14 524 -15 281 -1 513 -4 515 -7 9 -9 43 7 43 20 0
18 2 18 43 -6 28 -17 40 -18 61 -10 15 5 98 11 184 12 156 2 157 2 184 29 22
21 35 26 67 24 23 -1 41 1 41 5 0 8 31 5 69 -6 16 -5 22 -4 18 4 -4 6 0 9 10
7 10 -2 18 -4 18 -5 0 -1 24 -3 53 -5 28 -1 52 1 52 5 0 5 13 5 30 0 17 -5 32
-5 35 0 3 5 17 5 33 0 27 -10 117 -8 160 3 12 3 22 2 22 -2 0 -9 96 -7 158 3
41 8 42 9 42 46 0 21 5 42 11 45 6 4 8 22 4 46 -5 26 -3 39 5 39 6 0 8 5 4 12
-4 7 -9 51 -10 98 -1 47 -6 98 -9 113 -5 19 -3 27 6 27 9 0 10 3 3 8 -6 4 -11
23 -11 42 0 19 5 38 11 42 8 6 7 11 -3 17 -8 5 -12 20 -9 39 2 17 1 29 -4 26
-4 -3 -8 2 -8 11 0 9 4 14 9 11 15 -10 17 14 15 139 -2 115 -2 121 21 140 28
23 27 -2 22 525 -3 289 -4 315 -20 314 -23 -2 -23 45 0 62 15 11 16 17 6 43
-6 17 -7 33 -3 36 5 3 7 12 3 20 -3 9 0 22 6 29 9 10 9 16 1 21 -6 4 -9 19 -5
34 5 26 18 249 16 281 -2 27 -10 114 -14 149 -2 19 -9 37 -15 39 -7 2 -12 20
-12 39 0 20 -6 41 -14 47 -21 17 -29 91 -10 106 12 11 11 15 -12 26 -14 8 -33
14 -40 14 -8 0 -14 7 -14 15 0 11 -11 15 -39 15 -37 0 -59 19 -47 39 3 4 -16
6 -42 4 -96 -5 -259 -4 -307 3 -53 8 -60 8 -145 6 -30 -1 -108 0 -172 1 -65 2
-118 0 -118 -5 0 -5 -8 -5 -17 0 -20 11 -125 8 -162 -4 -19 -6 -22 -4 -16 7 8
12 6 12 -8 1 -9 -8 -21 -11 -26 -8 -5 4 -43 6 -83 5 -40 0 -100 0 -133 1 -33
1 -156 2 -272 3 -117 1 -213 4 -213 7 0 3 -46 4 -103 2 -56 -2 -157 -3 -224
-3 -66 1 -142 -3 -167 -8 -26 -5 -43 -5 -40 0 3 5 -2 9 -11 9 -10 0 -14 -5 -9
-12 5 -10 4 -10 -5 -2 -8 7 -84 9 -238 6 -139 -2 -223 -1 -220 5 4 5 0 10 -8
10 -8 0 -12 -4 -9 -9 3 -4 1 -8 -5 -8 -5 0 -12 6 -14 13 -3 6 -6 7 -6 2 -1 -7
-54 -9 -158 -7 -87 2 -155 1 -151 -4 4 -4 3 -13 -3 -20 -8 -10 -15 -11 -30 -1
-10 6 -19 17 -19 24 0 13 -2 13 -30 8z"/>
<path d="M3417 2973 c-4 -3 -7 -11 -7 -17 0 -6 5 -5 12 2 6 6 9 14 7 17 -3 3
-9 2 -12 -2z"/>
<path d="M1340 2960 c0 -5 5 -10 10 -10 6 0 10 5 10 10 0 6 -4 10 -10 10 -5 0
-10 -4 -10 -10z"/>
<path d="M3085 2880 c-18 -19 -17 -20 3 -20 15 0 22 6 22 20 0 11 -2 20 -3 20
-2 0 -12 -9 -22 -20z"/>
<path d="M3130 2730 c12 -8 12 -10 1 -10 -11 0 -11 -3 -1 -15 9 -11 17 -12 31
-4 11 5 17 14 14 20 -4 5 -10 7 -15 4 -5 -3 -11 -1 -15 5 -3 5 -12 10 -18 10
-7 0 -6 -4 3 -10z"/>
<path d="M6767 2523 c-4 -3 -7 -11 -7 -17 0 -6 5 -5 12 2 6 6 9 14 7 17 -3 3
-9 2 -12 -2z"/>
<path d="M3120 2320 c0 -5 5 -10 11 -10 5 0 7 5 4 10 -3 6 -8 10 -11 10 -2 0
-4 -4 -4 -10z"/>
<path d="M3144 2235 c3 -9 6 -19 6 -21 0 -2 7 -4 16 -4 22 0 13 34 -10 38 -14
3 -17 0 -12 -13z"/>
<path d="M6971 2194 c0 -11 3 -14 6 -6 3 7 2 16 -1 19 -3 4 -6 -2 -5 -13z"/>
<path d="M6940 2189 c0 -5 5 -7 10 -4 6 3 10 8 10 11 0 2 -4 4 -10 4 -5 0 -10
-5 -10 -11z"/>
<path d="M6890 1820 c0 -5 5 -10 10 -10 6 0 10 5 10 10 0 6 -4 10 -10 10 -5 0
-10 -4 -10 -10z"/>
<path d="M6946 1821 c-4 -7 -5 -15 -2 -18 9 -9 19 4 14 18 -4 11 -6 11 -12 0z"/>
<path d="M6850 1540 c0 -5 5 -10 10 -10 6 0 10 5 10 10 0 6 -4 10 -10 10 -5 0
-10 -4 -10 -10z"/>
<path d="M6810 1449 c0 -5 5 -7 10 -4 6 3 10 8 10 11 0 2 -4 4 -10 4 -5 0 -10
-5 -10 -11z"/>
<path d="M6805 1040 c10 -11 20 -20 22 -20 1 0 3 9 3 20 0 14 -7 20 -22 20
-20 0 -21 -1 -3 -20z"/>
<path d="M0 430 c0 -5 7 -10 15 -10 8 0 15 5 15 10 0 6 -7 10 -15 10 -8 0 -15
-4 -15 -10z"/>
<path d="M4420 96 c0 -9 5 -16 10 -16 6 0 10 4 10 9 0 6 -4 13 -10 16 -5 3
-10 -1 -10 -9z"/>
<path d="M690 70 c0 -5 5 -10 10 -10 6 0 10 5 10 10 0 6 -4 10 -10 10 -5 0
-10 -4 -10 -10z"/>
<path d="M124 44 c3 -9 6 -23 7 -32 0 -14 2 -13 9 3 13 31 11 45 -6 45 -11 0
-14 -5 -10 -16z"/>
<path d="M1045 40 c-7 -23 1 -40 18 -40 7 0 14 13 15 30 3 35 -23 43 -33 10z"/>
<path d="M1281 24 c0 -11 3 -14 6 -6 3 7 2 16 -1 19 -3 4 -6 -2 -5 -13z"/>
<path d="M4370 10 c0 -5 5 -10 10 -10 6 0 10 5 10 10 0 6 -4 10 -10 10 -5 0
-10 -4 -10 -10z"/>
<path d="M2618 3 c7 -3 16 -2 19 1 4 3 -2 6 -13 5 -11 0 -14 -3 -6 -6z"/>
</g>
</svg>
